<?xml version="1.0" encoding="UTF-8" ?>
<!DOCTYPE svg PUBLIC "-//W3C//DTD SVG 1.1//EN" "http://www.w3.org/Graphics/SVG/1.1/DTD/svg11.dtd">
<svg width="40pt" height="32pt" viewBox="0 0 82 66" version="1.1" xmlns="http://www.w3.org/2000/svg">
<path fill-rule="evenodd"  fill="rgb(255, 255, 255)"
 d="M41.009,24.695 C34.288,24.695 28.841,30.145 28.841,36.864 C28.841,43.585 34.288,49.032 41.009,49.032 C47.729,49.032 53.178,43.585 53.178,36.864 C53.178,30.145 47.729,24.695 41.009,24.695 ZM73.458,12.527 L63.724,12.527 C62.385,12.527 60.943,11.488 60.520,10.218 L58.004,2.666 C57.579,1.397 56.139,0.358 54.800,0.358 L27.218,0.358 C25.880,0.358 24.437,1.397 24.015,2.667 L21.499,10.219 C21.074,11.488 19.633,12.527 18.295,12.527 L8.560,12.527 C4.098,12.527 0.448,16.177 0.448,20.639 L0.448,57.144 C0.448,61.606 4.098,65.257 8.560,65.257 L73.458,65.257 C77.920,65.257 81.571,61.606 81.571,57.144 L81.571,20.639 C81.571,16.177 77.920,12.527 73.458,12.527 ZM41.009,57.144 C29.809,57.144 20.729,48.064 20.729,36.864 C20.729,25.664 29.809,16.583 41.009,16.583 C52.208,16.583 61.290,25.664 61.290,36.864 C61.290,48.064 52.208,57.144 41.009,57.144 ZM70.619,26.312 C69.052,26.312 67.780,25.041 67.780,23.473 C67.780,21.905 69.052,20.633 70.619,20.633 C72.188,20.633 73.458,21.905 73.458,23.473 C73.458,25.041 72.188,26.312 70.619,26.312 Z"/>
</svg>
