<?xml version="1.0" encoding="UTF-8" ?>
<!DOCTYPE svg PUBLIC "-//W3C//DTD SVG 1.1//EN" "http://www.w3.org/Graphics/SVG/1.1/DTD/svg11.dtd">
<svg width="486pt" height="410pt" viewBox="0 0 486 410" version="1.1" xmlns="http://www.w3.org/2000/svg">
<g id="#cccccc">
<path fill="#cccccc" opacity="1.00" d=" M 210.22 22.38 C 229.51 12.85 252.21 10.60 273.09 15.61 C 296.72 21.35 317.65 36.97 330.18 57.77 C 337.93 70.62 342.26 85.32 343.51 100.23 C 347.70 100.39 352.11 100.17 356.01 101.98 C 361.23 104.55 364.88 110.13 364.83 115.99 C 364.91 127.00 364.85 138.01 364.86 149.02 C 365.02 154.86 361.73 160.67 356.51 163.35 C 352.51 165.63 347.77 165.39 343.32 165.53 C 342.68 184.62 345.80 204.12 340.93 222.86 C 334.37 247.36 313.43 266.96 288.78 272.56 C 288.76 276.86 288.74 281.17 288.75 285.48 C 305.79 285.86 322.88 284.69 339.89 286.32 C 367.96 288.50 395.06 300.33 416.20 318.84 C 442.66 341.70 460.21 375.00 462.66 410.00 L 452.43 410.00 C 450.26 389.96 443.58 370.38 432.61 353.44 C 409.83 317.71 367.78 294.77 325.27 296.29 C 334.65 315.61 344.70 334.60 354.39 353.77 C 355.80 356.15 356.47 359.89 353.70 361.59 C 343.87 367.91 333.75 373.79 323.79 379.90 C 330.03 390.18 337.64 399.57 343.64 410.00 L 331.47 410.00 C 325.39 401.53 319.77 392.74 313.78 384.21 C 312.52 382.34 310.89 380.38 311.18 377.95 C 310.85 375.75 312.94 374.61 314.41 373.48 C 323.68 367.00 334.06 362.27 343.08 355.40 C 333.82 335.39 322.99 316.15 313.42 296.29 C 305.21 296.07 296.99 296.14 288.78 296.26 C 288.79 334.17 288.78 372.09 288.78 410.00 L 278.51 410.00 C 278.50 388.77 278.53 367.53 278.47 346.30 C 261.36 354.62 240.53 354.52 223.40 346.33 C 223.36 367.56 223.39 388.78 223.38 410.00 L 213.15 410.00 C 213.14 372.09 213.16 334.18 213.14 296.27 C 204.97 296.35 196.77 295.65 188.62 296.54 C 178.89 315.79 168.64 334.78 159.31 354.22 C 158.35 355.45 160.29 356.20 160.96 356.94 C 169.85 363.37 179.98 367.89 188.79 374.44 C 191.70 376.07 191.04 380.13 189.34 382.44 C 183.21 391.72 176.84 400.84 170.53 410.00 L 158.29 410.00 C 164.29 399.57 171.97 390.22 178.13 379.89 C 168.80 374.22 159.44 368.60 150.15 362.87 C 148.65 361.83 146.60 360.86 146.40 358.81 C 145.97 356.67 147.06 354.67 147.95 352.82 C 157.62 334.06 167.34 315.32 176.62 296.36 C 170.42 296.13 164.22 296.11 158.02 296.24 C 114.92 297.77 73.91 323.89 53.65 361.85 C 45.54 376.73 40.30 393.12 38.56 410.00 L 28.09 410.00 C 29.12 402.25 30.19 394.49 32.20 386.92 C 35.42 373.84 41.22 361.56 47.94 349.94 C 64.56 323.31 90.39 302.27 120.39 292.68 C 150.19 282.25 182.17 286.26 213.09 285.52 C 213.17 281.20 213.14 276.87 213.17 272.55 C 183.91 265.96 160.54 239.08 158.72 209.06 C 158.33 194.52 158.75 179.97 158.44 165.43 C 152.74 165.56 146.28 165.25 141.94 161.04 C 138.02 157.53 136.54 152.09 136.64 146.98 C 136.82 137.97 136.94 128.95 136.60 119.94 C 136.44 114.10 137.79 107.51 142.71 103.79 C 147.16 100.30 153.07 100.27 158.45 100.19 C 159.59 85.55 163.86 71.12 171.30 58.43 C 180.46 43.03 194.14 30.31 210.22 22.38 M 189.37 51.39 C 178.82 63.57 171.30 78.89 169.83 95.04 C 172.33 94.59 174.14 92.66 175.98 91.07 C 182.97 84.75 187.47 76.11 189.97 67.12 C 190.50 64.52 193.40 61.86 196.12 63.04 C 202.03 65.00 207.69 67.74 213.82 69.04 C 230.53 73.40 247.91 72.08 264.99 72.29 C 278.73 71.87 292.42 68.88 305.03 63.37 C 308.28 61.38 312.07 64.61 312.56 67.92 C 315.67 78.90 322.10 89.24 331.81 95.51 C 331.94 91.21 331.14 86.98 329.79 82.91 C 324.86 65.66 314.03 50.23 299.67 39.50 C 284.15 27.88 264.36 22.22 245.05 23.64 C 223.82 25.14 203.27 35.23 189.37 51.39 M 198.83 75.19 C 193.23 88.97 183.47 101.37 170.17 108.38 C 168.24 109.11 168.98 111.27 169.06 112.85 C 168.58 126.57 168.88 140.33 168.81 154.06 C 168.83 163.01 174.38 171.91 182.89 175.06 C 190.52 177.59 198.73 176.49 206.62 176.38 C 209.59 174.97 211.48 171.90 214.25 170.10 C 219.94 166.02 227.25 165.86 233.97 165.49 C 235.26 163.60 236.64 161.55 238.88 160.71 C 242.07 159.76 245.40 162.76 245.25 165.99 C 245.52 168.97 244.40 172.68 246.96 174.95 C 249.37 177.50 254.21 177.01 255.85 173.85 C 257.60 170.52 255.76 166.44 257.40 163.07 C 258.44 160.71 261.67 159.78 263.86 161.11 C 265.65 162.08 266.62 163.97 267.99 165.41 C 274.30 165.71 281.04 165.94 286.55 169.43 C 289.72 171.20 291.87 174.22 294.76 176.34 C 300.44 176.81 306.19 176.64 311.89 176.49 C 321.76 176.38 330.73 168.45 332.52 158.84 C 333.60 151.28 333.02 143.61 333.10 136.00 C 333.40 127.22 332.75 118.44 333.16 109.67 C 332.76 108.45 331.40 108.06 330.48 107.36 C 318.40 100.16 308.55 88.87 303.99 75.48 C 293.15 78.85 282.04 81.75 270.67 82.44 C 260.45 82.71 250.22 82.51 240.00 82.58 C 225.97 82.87 211.89 80.29 198.83 75.19 M 148.71 112.68 C 146.90 114.27 147.31 116.85 147.23 118.99 C 147.36 129.55 147.06 140.13 147.38 150.67 C 148.64 155.66 154.57 154.54 158.46 154.89 C 158.63 140.17 158.58 125.44 158.50 110.72 C 155.19 110.67 151.35 110.25 148.71 112.68 M 343.38 110.71 C 343.31 125.42 343.33 140.13 343.40 154.85 C 347.07 154.68 352.78 155.64 354.09 151.02 C 354.65 138.98 354.42 126.89 354.21 114.83 C 352.80 110.27 347.20 110.54 343.38 110.71 M 267.14 176.21 C 263.23 182.67 256.03 188.87 247.95 186.84 C 241.89 186.03 238.20 180.77 234.78 176.27 C 229.94 176.10 224.67 175.84 220.44 178.64 C 215.00 181.67 212.41 188.06 212.29 194.06 C 211.80 198.79 203.91 199.25 202.47 194.93 C 202.04 192.37 202.30 189.77 202.38 187.20 C 195.58 187.14 188.63 187.77 182.01 185.82 C 177.33 184.55 173.21 181.85 169.31 179.06 C 168.66 188.04 168.63 197.06 168.97 206.04 C 169.69 219.57 174.73 232.98 183.87 243.09 C 194.85 255.62 211.15 263.74 227.94 263.63 C 243.87 263.63 259.79 263.73 275.72 263.58 C 299.87 263.15 322.19 245.85 329.86 223.15 C 335.03 209.01 332.72 193.76 332.70 179.08 C 328.79 181.85 324.65 184.42 320.00 185.74 C 313.39 187.83 306.39 187.14 299.58 187.17 C 299.56 189.76 299.79 192.38 299.43 194.96 C 298.07 198.26 292.92 198.99 290.67 196.25 C 289.23 194.48 289.43 192.08 288.98 189.98 C 288.69 186.46 286.81 183.27 284.37 180.80 C 279.78 176.59 273.14 175.58 267.14 176.21 M 223.50 274.39 C 223.91 282.62 222.40 290.98 224.11 299.12 C 226.06 308.50 233.47 316.29 242.52 319.23 C 254.92 323.36 269.86 317.14 275.30 305.18 C 280.02 295.57 278.05 284.61 278.49 274.32 C 260.16 274.37 241.83 274.24 223.50 274.39 M 223.52 319.86 C 223.38 324.40 223.16 328.96 223.51 333.49 C 228.61 337.36 234.69 339.70 240.88 341.19 C 243.55 341.52 246.23 341.70 248.89 342.17 C 259.32 342.22 269.81 339.56 278.53 333.71 C 278.49 329.06 278.55 324.41 278.45 319.76 C 274.80 322.39 271.23 325.19 267.14 327.13 C 260.13 330.95 251.85 331.26 244.09 330.39 C 236.39 328.94 229.46 324.85 223.52 319.86 Z" />
<path fill="#cccccc" opacity="1.00" d=" M 202.12 106.07 C 215.03 102.75 230.80 105.70 238.85 117.14 C 240.98 119.72 238.76 122.70 237.12 124.82 C 235.22 124.47 232.63 125.51 231.34 123.64 C 222.53 113.33 204.57 111.88 195.24 122.24 C 191.85 126.16 184.25 122.11 186.55 117.08 C 189.63 111.22 195.95 107.81 202.12 106.07 Z" />
<path fill="#cccccc" opacity="1.00" d=" M 283.10 105.25 C 293.35 103.63 304.72 106.23 312.23 113.68 C 313.89 115.49 315.91 117.37 316.18 119.96 C 315.68 121.67 314.82 123.30 313.55 124.57 C 311.88 124.90 310.17 124.70 308.50 124.69 C 300.16 113.64 281.55 111.47 271.90 121.93 C 269.77 124.47 265.22 124.45 263.41 121.54 C 261.64 119.67 262.72 116.89 263.98 115.06 C 268.57 109.26 275.85 106.03 283.10 105.25 Z" />
<path fill="#cccccc" opacity="1.00" d=" M 209.38 122.57 C 215.64 120.63 223.42 125.23 223.44 132.08 C 224.51 140.55 213.14 147.08 206.53 141.43 C 199.51 136.97 201.42 124.80 209.38 122.57 Z" />
<path fill="#cccccc" opacity="1.00" d=" M 285.50 122.63 C 291.72 120.57 299.58 125.11 299.73 131.93 C 300.95 140.17 290.13 146.83 283.40 141.81 C 275.88 137.72 277.37 125.08 285.50 122.63 Z" />
<path fill="#cccccc" opacity="1.00" d=" M 227.22 200.93 C 224.01 198.80 224.34 192.93 228.05 191.49 C 231.33 190.14 233.88 193.21 236.57 194.50 C 247.31 200.59 261.29 199.22 271.16 192.02 C 275.22 188.94 281.25 195.13 278.07 199.12 C 271.10 206.86 260.01 208.99 250.03 209.13 C 241.86 208.59 233.70 206.02 227.22 200.93 Z" />
<path fill="#cccccc" opacity="1.00" d=" M 254.14 220.19 C 256.15 220.52 258.61 220.13 260.11 221.83 C 262.71 224.22 261.88 229.12 258.51 230.33 C 254.74 230.89 250.90 230.79 247.11 230.68 C 245.42 230.50 243.47 230.81 242.12 229.55 C 239.28 227.32 239.87 222.28 243.20 220.80 C 246.80 220.23 250.49 219.75 254.14 220.19 Z" />
</g>
</svg>
