<?xml version="1.0" encoding="UTF-8" ?>
<!DOCTYPE svg PUBLIC "-//W3C//DTD SVG 1.1//EN" "http://www.w3.org/Graphics/SVG/1.1/DTD/svg11.dtd">
<svg width="401pt" height="410pt" viewBox="0 0 401 410" version="1.1" xmlns="http://www.w3.org/2000/svg">
<g id="#cccccc">
<path fill="#cccccc" opacity="1.00" d=" M 118.51 39.56 C 136.33 22.84 160.55 13.15 185.01 13.18 C 197.00 13.26 209.01 12.96 221.00 13.37 C 247.22 14.80 272.46 27.55 289.47 47.50 C 304.58 64.95 313.22 87.88 313.23 110.98 C 313.28 160.49 313.22 210.00 313.26 259.51 C 340.88 270.87 360.62 299.12 361.16 329.07 C 361.28 356.05 361.18 383.02 361.22 410.00 L 349.21 410.00 C 349.17 383.01 349.28 356.03 349.15 329.05 C 348.60 305.43 333.98 283.03 312.89 272.55 C 310.60 295.71 299.80 317.88 282.93 333.91 C 265.65 350.62 242.07 360.64 218.02 361.27 C 206.35 361.43 194.68 361.38 183.01 361.30 C 159.12 360.80 135.62 351.10 118.25 334.71 C 100.89 318.62 89.77 296.08 87.43 272.53 C 66.37 283.07 51.71 305.42 51.17 329.06 C 51.06 356.04 51.16 383.02 51.13 410.00 L 39.12 410.00 C 39.15 382.97 39.05 355.95 39.17 328.92 C 39.76 299.02 59.50 270.85 87.08 259.51 C 87.12 209.66 87.04 159.81 87.12 109.96 C 87.33 83.49 99.08 57.48 118.51 39.56 M 170.14 26.53 C 149.66 30.15 130.75 41.59 117.85 57.88 C 105.89 72.81 99.14 91.82 99.11 110.96 C 99.09 161.32 99.08 211.68 99.11 262.04 C 99.04 279.10 103.98 296.15 113.45 310.37 C 137.51 300.44 160.96 288.90 183.05 275.09 C 210.24 258.01 235.80 237.11 253.67 210.11 C 244.06 218.76 232.40 225.17 219.86 228.40 C 204.24 232.46 187.37 231.56 172.29 225.78 C 153.52 218.71 137.84 204.41 128.17 186.92 C 117.18 167.25 113.80 143.59 118.32 121.56 C 122.39 101.28 133.42 82.36 149.48 69.26 C 163.31 57.83 181.03 51.09 199.01 50.90 C 216.56 50.55 234.05 56.46 248.03 67.02 C 262.81 78.01 273.45 93.92 279.58 111.17 C 288.60 137.17 287.12 166.29 276.78 191.68 C 265.73 219.26 245.70 242.28 223.06 261.08 C 192.57 286.24 157.26 304.82 121.03 320.25 C 136.63 337.72 159.47 348.65 182.96 349.07 C 193.96 349.14 204.96 349.11 215.96 349.09 C 234.67 349.04 253.23 342.41 267.93 330.86 C 284.52 317.94 296.20 298.80 299.82 278.06 C 301.12 271.12 301.21 264.04 301.24 257.01 C 301.23 211.33 301.24 165.65 301.24 119.96 C 301.22 113.59 301.41 107.19 300.58 100.86 C 298.40 82.78 290.19 65.54 277.68 52.33 C 264.40 38.18 246.24 28.66 226.99 26.02 C 218.37 24.76 209.64 25.27 200.96 25.16 C 190.69 25.30 180.31 24.59 170.14 26.53 M 176.10 67.38 C 160.91 73.18 148.22 84.57 139.87 98.43 C 180.06 98.44 220.25 98.44 260.44 98.43 C 252.67 85.47 241.09 74.68 227.20 68.59 C 211.22 61.45 192.40 61.00 176.10 67.38 M 134.05 110.43 C 126.44 129.91 126.49 152.26 134.19 171.71 C 139.92 186.28 150.03 199.21 163.19 207.78 C 174.62 215.29 188.34 219.30 202.02 218.87 C 214.83 218.56 227.47 214.39 238.05 207.19 C 252.15 197.69 262.59 183.17 267.82 167.05 C 273.80 148.75 273.28 128.38 266.28 110.43 C 222.20 110.43 178.13 110.43 134.05 110.43 Z" />
<path fill="#cccccc" opacity="1.00" d=" M 153.49 130.78 C 162.67 129.09 172.28 129.20 181.27 131.77 C 184.50 132.77 186.25 136.81 184.75 139.85 C 183.53 142.80 179.90 144.10 176.98 143.00 C 168.79 140.92 160.15 141.30 152.00 143.33 C 147.65 144.03 143.98 138.92 145.92 135.00 C 147.14 131.95 150.62 131.29 153.49 130.78 Z" />
<path fill="#cccccc" opacity="1.00" d=" M 213.61 130.76 C 222.64 129.10 232.09 129.22 240.98 131.66 C 244.38 132.48 246.35 136.66 244.82 139.82 C 243.62 142.76 239.99 144.10 237.07 143.01 C 228.84 140.91 220.16 141.30 211.97 143.34 C 207.68 143.95 204.09 139.00 205.93 135.10 C 207.11 131.95 210.70 131.26 213.61 130.76 Z" />
<path fill="#cccccc" opacity="1.00" d=" M 183.24 181.13 C 184.95 180.02 187.07 180.29 188.93 180.82 C 196.86 182.72 205.21 182.43 213.10 180.45 C 216.47 179.67 219.96 182.53 220.09 185.94 C 220.33 188.87 218.12 191.66 215.26 192.20 C 205.10 194.75 194.23 194.73 184.14 191.90 C 179.48 190.47 178.91 183.33 183.24 181.13 Z" />
</g>
</svg>
